<svg xmlns="http://www.w3.org/2000/svg" viewBox="0 0 1200 700">
<defs>
  <linearGradient id="g" x1="0" x2="1" y1="0" y2="1">
    <stop offset="0" stop-color="#6ec6ff" stop-opacity=".22"/>
    <stop offset="1" stop-color="#f7c85a" stop-opacity=".32"/>
  </linearGradient>
</defs>
<rect width="1200" height="700" fill="url(#g)"/>
<path d="M260 560 V340 C260 260 350 200 450 200 H750 C850 200 940 260 940 340 V560"
      fill="none" stroke="rgba(255,255,255,.55)" stroke-width="18"/>
<path d="M360 560 V360 C360 300 420 260 480 260 H720 C780 260 840 300 840 360 V560"
      fill="none" stroke="rgba(255,255,255,.45)" stroke-width="18"/>
<path d="M480 560 V410 C480 360 520 330 560 330 H640 C680 330 720 360 720 410 V560"
      fill="none" stroke="rgba(255,255,255,.40)" stroke-width="18"/>
<line x1="220" y1="560" x2="980" y2="560" stroke="rgba(255,255,255,.55)" stroke-width="18"/>
<text x="60" y="640" font-size="42" fill="rgba(255,255,255,.65)" font-family="system-ui,Segoe UI,Roboto">Ca’ d’Zan</text>
</svg>